<svg width="255" height="255" viewBox="0 0 255 255" fill="none" xmlns="http://www.w3.org/2000/svg">
<circle cx="252.5" cy="2.5" r="2.5" fill="#BFC5D3"/>
<circle cx="252.5" cy="52.5" r="2.5" fill="#BFC5D3"/>
<circle cx="252.5" cy="102.5" r="2.5" fill="#BFC5D3"/>
<circle cx="252.5" cy="152.5" r="2.5" fill="#BFC5D3"/>
<circle cx="252.5" cy="202.5" r="2.5" fill="#BFC5D3"/>
<circle cx="252.5" cy="252.5" r="2.5" fill="#BFC5D3"/>
<circle cx="202.5" cy="2.5" r="2.5" fill="#BFC5D3"/>
<circle cx="202.5" cy="52.5" r="2.5" fill="#BFC5D3"/>
<circle cx="202.5" cy="102.5" r="2.5" fill="#BFC5D3"/>
<circle cx="202.5" cy="152.5" r="2.5" fill="#BFC5D3"/>
<circle cx="202.5" cy="202.5" r="2.5" fill="#BFC5D3"/>
<circle cx="202.5" cy="252.5" r="2.5" fill="#BFC5D3"/>
<circle cx="152.5" cy="2.5" r="2.5" fill="#BFC5D3"/>
<circle cx="152.5" cy="52.5" r="2.5" fill="#BFC5D3"/>
<circle cx="152.5" cy="102.5" r="2.5" fill="#BFC5D3"/>
<circle cx="152.5" cy="152.5" r="2.5" fill="#BFC5D3"/>
<circle cx="152.5" cy="202.5" r="2.5" fill="#BFC5D3"/>
<circle cx="152.5" cy="252.5" r="2.5" fill="#BFC5D3"/>
<circle cx="102.5" cy="2.5" r="2.5" fill="#BFC5D3"/>
<circle cx="102.5" cy="52.5" r="2.5" fill="#BFC5D3"/>
<circle cx="102.5" cy="102.5" r="2.5" fill="#BFC5D3"/>
<circle cx="102.5" cy="152.5" r="2.5" fill="#BFC5D3"/>
<circle cx="102.5" cy="202.5" r="2.5" fill="#BFC5D3"/>
<circle cx="102.5" cy="252.5" r="2.5" fill="#BFC5D3"/>
<circle cx="52.5" cy="2.5" r="2.5" fill="#BFC5D3"/>
<circle cx="52.5" cy="52.5" r="2.5" fill="#BFC5D3"/>
<circle cx="52.5" cy="102.5" r="2.5" fill="#BFC5D3"/>
<circle cx="52.5" cy="152.5" r="2.5" fill="#BFC5D3"/>
<circle cx="52.5" cy="202.5" r="2.5" fill="#BFC5D3"/>
<circle cx="52.5" cy="252.5" r="2.5" fill="#BFC5D3"/>
<circle cx="2.5" cy="2.5" r="2.5" fill="#BFC5D3"/>
<circle cx="2.5" cy="52.5" r="2.5" fill="#BFC5D3"/>
<circle cx="2.5" cy="102.5" r="2.5" fill="#BFC5D3"/>
<circle cx="2.5" cy="152.5" r="2.5" fill="#BFC5D3"/>
<circle cx="2.5" cy="202.5" r="2.5" fill="#BFC5D3"/>
<circle cx="2.5" cy="252.5" r="2.5" fill="#BFC5D3"/>
</svg>
