<svg width="180" height="70" viewBox="0 0 180 70" fill="none" xmlns="http://www.w3.org/2000/svg">
<circle cx="35" cy="35" r="35" fill="#335EF7"/>
<circle cx="35" cy="35" r="3.5" fill="white"/>
<path d="M114.59 34.91C114.59 28.58 109.82 24.14 103.82 24.14C97.85 24.14 92.99 28.58 92.99 34.91C92.99 41.24 97.85 45.71 103.82 45.71C109.79 45.71 114.59 41.24 114.59 34.91ZM98.24 34.91C98.24 31.16 100.4 28.79 103.82 28.79C107.18 28.79 109.37 31.16 109.37 34.91C109.37 38.6 107.18 41.03 103.82 41.03C100.4 41.03 98.24 38.6 98.24 34.91ZM131.034 40.64C130.944 34.4 121.884 36.29 121.884 33.62C121.884 32.81 122.544 32.33 123.744 32.33C125.184 32.33 126.054 33.08 126.204 34.22H130.944C130.614 30.92 128.214 28.52 123.894 28.52C119.514 28.52 117.084 30.86 117.084 33.71C117.084 39.86 126.204 37.91 126.204 40.61C126.204 41.36 125.514 41.96 124.194 41.96C122.784 41.96 121.734 41.18 121.614 40.01H116.544C116.784 43.25 119.784 45.74 124.254 45.74C128.454 45.74 131.034 43.55 131.034 40.64ZM134.173 45.5H139.303V28.76H134.173V45.5ZM136.753 27.02C138.553 27.02 139.783 25.79 139.783 24.26C139.783 22.7 138.553 21.47 136.753 21.47C134.923 21.47 133.693 22.7 133.693 24.26C133.693 25.79 134.923 27.02 136.753 27.02ZM148.15 37.73C148.15 34.85 149.56 34.01 151.99 34.01H153.4V28.58C151.15 28.58 149.32 29.78 148.15 31.55V28.76H143.02V45.5H148.15V37.73ZM155.852 45.5H160.982V28.76H155.852V45.5ZM158.432 27.02C160.232 27.02 161.462 25.79 161.462 24.26C161.462 22.7 160.232 21.47 158.432 21.47C156.602 21.47 155.372 22.7 155.372 24.26C155.372 25.79 156.602 27.02 158.432 27.02ZM178.29 40.64C178.2 34.4 169.14 36.29 169.14 33.62C169.14 32.81 169.8 32.33 171 32.33C172.44 32.33 173.31 33.08 173.46 34.22H178.2C177.87 30.92 175.47 28.52 171.15 28.52C166.77 28.52 164.34 30.86 164.34 33.71C164.34 39.86 173.46 37.91 173.46 40.61C173.46 41.36 172.77 41.96 171.45 41.96C170.04 41.96 168.99 41.18 168.87 40.01H163.8C164.04 43.25 167.04 45.74 171.51 45.74C175.71 45.74 178.29 43.55 178.29 40.64Z" fill="white"/>
<rect x="14.25" y="20.5" width="41.5" height="29" rx="14.5" stroke="white" stroke-width="7"/>
</svg>
